<svg width="301" height="230" viewBox="0 0 301 230" fill="none" xmlns="http://www.w3.org/2000/svg">
<g filter="url(#filter0_f_33_263)">
<ellipse cx="147.528" cy="186.812" rx="110.607" ry="21.3375" fill="#1F88F8" fill-opacity="0.35"/>
</g>
<path d="M148.743 229.402C212.091 229.402 263.444 178.049 263.444 114.701C263.444 51.3534 212.091 0 148.743 0C85.3954 0 34.042 51.3534 34.042 114.701C34.042 178.049 85.3954 229.402 148.743 229.402Z" fill="url(#paint0_linear_33_263)"/>
<g filter="url(#filter1_d_33_263)">
<path d="M244.824 77.6245L146.533 146.219L48.2422 77.6245L138.22 14.8058C140.66 13.1051 143.563 12.1934 146.537 12.1934C149.511 12.1934 152.414 13.1051 154.854 14.8058L172.803 27.3533L177.502 30.6166L224.82 63.6575L229.804 67.1574L244.824 77.6245Z" fill="url(#paint1_linear_33_263)"/>
</g>
<path d="M130.551 135.066L48.2422 193.594V77.624L130.551 135.066Z" fill="url(#paint2_linear_33_263)"/>
<path d="M162.523 135.066L244.832 193.594V77.624L162.523 135.066Z" fill="url(#paint3_linear_33_263)"/>
<path d="M48.2422 193.594L138.114 129.699C140.573 127.947 143.518 127.006 146.537 127.006C149.556 127.006 152.501 127.947 154.96 129.699L244.824 193.594H48.2422Z" fill="url(#paint4_linear_33_263)"/>
<g filter="url(#filter2_d_33_263)">
<path d="M58.6281 56.6094C43.5595 63.6581 27.367 67.9972 10.793 69.4276C13.0325 74.6335 28.9448 100.692 76.1807 122.164C77.4576 122.361 106.954 108.639 123.142 99.2288C122.592 100.015 72.8607 81.7154 58.6281 56.6094Z" fill="url(#paint5_linear_33_263)"/>
</g>
<path d="M59.7947 69.5665C59.1013 69.0854 58.223 68.9555 57.42 69.2153L31.056 77.7448C30.1116 78.0504 29.7751 79.2136 30.4105 79.9762V79.9762C30.9223 80.5902 31.7599 80.8248 32.5161 80.5658L59.5527 71.3053C60.3156 71.044 60.4573 70.0262 59.7947 69.5665V69.5665Z" fill="#C9DFFF"/>
<path d="M59.3376 80.0712C58.6689 79.4433 57.7091 79.2341 56.8398 79.5266L38.5884 85.6691C37.7836 85.9399 37.4994 86.9329 38.0391 87.5885V87.5885C38.48 88.1241 39.2066 88.3306 39.8633 88.107L59.0098 81.5879C59.6561 81.3678 59.8354 80.5385 59.3376 80.0712V80.0712Z" fill="#C9DFFF"/>
<path d="M69.1338 85.2731C68.436 84.7143 67.4974 84.5596 66.6573 84.865L45.6339 92.5059C44.8088 92.8058 44.5605 93.8526 45.163 94.4911V94.4911C45.6239 94.9797 46.3317 95.1464 46.9622 94.915L68.8724 86.8748C69.5535 86.6248 69.7001 85.7266 69.1338 85.2731V85.2731Z" fill="#C9DFFF"/>
<path d="M76.4836 101.045C75.8373 100.33 74.8188 100.086 73.9188 100.429L61.9039 105.014C61.1661 105.296 60.9001 106.203 61.3692 106.839V106.839C61.8087 107.434 62.5923 107.662 63.2824 107.394L76.1605 102.407C76.7159 102.191 76.8832 101.486 76.4836 101.045V101.045Z" fill="#C9DFFF"/>
<g filter="url(#filter3_d_33_263)">
<path d="M232.812 92.9512C251.084 101.498 270.718 106.76 290.815 108.494C288.1 114.806 268.805 146.404 211.529 172.44C209.98 172.678 174.214 156.04 154.586 144.63C155.253 145.583 215.554 123.394 232.812 92.9512Z" fill="url(#paint6_linear_33_263)"/>
</g>
<path d="M231.398 108.662C232.239 108.078 233.304 107.921 234.278 108.236L266.246 118.578C267.391 118.949 267.799 120.359 267.028 121.284V121.284C266.408 122.029 265.392 122.313 264.475 121.999L231.692 110.77C230.767 110.453 230.595 109.219 231.398 108.662V108.662Z" fill="#C9DFFF"/>
<path d="M222.449 117.175C223.26 116.414 224.423 116.16 225.478 116.515L247.608 123.963C248.584 124.291 248.929 125.495 248.274 126.29V126.29C247.74 126.94 246.859 127.19 246.063 126.919L222.846 119.014C222.062 118.747 221.845 117.742 222.449 117.175V117.175Z" fill="#C9DFFF"/>
<path d="M213.25 124.242C214.097 123.565 215.235 123.377 216.253 123.747L241.745 133.012C242.746 133.376 243.047 134.645 242.316 135.42V135.42C241.758 136.012 240.899 136.214 240.135 135.934L213.567 126.184C212.741 125.881 212.564 124.792 213.25 124.242V124.242Z" fill="#C9DFFF"/>
<path d="M192.552 138.383C193.336 137.516 194.571 137.22 195.662 137.637L210.231 143.196C211.126 143.537 211.448 144.638 210.879 145.408V145.408C210.346 146.13 209.396 146.406 208.56 146.082L192.944 140.034C192.271 139.773 192.068 138.918 192.552 138.383V138.383Z" fill="#C9DFFF"/>
<path d="M202.062 130.831C202.924 130.29 203.988 130.178 204.944 130.528L238.512 142.801C239.585 143.193 239.845 144.592 238.985 145.344V145.344C238.416 145.841 237.621 145.987 236.912 145.726L202.284 132.97C201.351 132.626 201.219 131.36 202.062 130.831V130.831Z" fill="#C9DFFF"/>
<path d="M83.7542 88.7201C83.043 88.274 82.1655 88.1816 81.377 88.4699L53.6934 98.592C52.8085 98.9155 52.5942 100.069 53.3037 100.689V100.689C53.773 101.099 54.4287 101.22 55.0134 101.004L83.5706 90.4845C84.3408 90.2008 84.4494 89.1562 83.7542 88.7201V88.7201Z" fill="#C9DFFF"/>
<path d="M243.764 26.9988C243.764 29.6443 241.62 31.7888 238.974 31.7888C236.329 31.7888 234.184 29.6443 234.184 26.9988C234.184 24.3533 236.329 22.2087 238.974 22.2087C241.62 22.2087 243.764 24.3533 243.764 26.9988Z" stroke="url(#paint7_linear_33_263)" stroke-width="2.61276"/>
<circle cx="69.1453" cy="204.667" r="4.79006" stroke="url(#paint8_linear_33_263)" stroke-width="2.61276"/>
<circle cx="216.331" cy="214.247" r="4.79006" stroke="url(#paint9_linear_33_263)" stroke-width="2.61276"/>
<path d="M85.4025 31.9318C85.9173 29.7988 88.9513 29.7988 89.4661 31.9318L91.1991 39.1106C91.3831 39.8728 91.9782 40.4679 92.7404 40.6519L99.9193 42.3849C102.052 42.8998 102.052 45.9337 99.9193 46.4486L92.7404 48.1815C91.9782 48.3655 91.3831 48.9606 91.1991 49.7229L89.4661 56.9017C88.9513 59.0347 85.9173 59.0347 85.4025 56.9017L83.6695 49.7229C83.4855 48.9606 82.8904 48.3655 82.1282 48.1815L74.9493 46.4486C72.8164 45.9337 72.8164 42.8998 74.9493 42.3849L82.1282 40.6519C82.8904 40.4679 83.4855 39.8728 83.6695 39.1106L85.4025 31.9318Z" fill="url(#paint10_linear_33_263)"/>
<path d="M259.912 183.417C260.427 181.284 263.461 181.284 263.976 183.417L265.709 190.596C265.893 191.358 266.488 191.953 267.25 192.137L274.429 193.87C276.562 194.385 276.562 197.419 274.429 197.934L267.25 199.667C266.488 199.851 265.893 200.446 265.709 201.208L263.976 208.387C263.461 210.52 260.427 210.52 259.912 208.387L258.179 201.208C257.995 200.446 257.4 199.851 256.638 199.667L249.459 197.934C247.326 197.419 247.326 194.385 249.459 193.87L256.638 192.137C257.4 191.953 257.995 191.358 258.179 190.596L259.912 183.417Z" fill="url(#paint11_linear_33_263)"/>
<path d="M37.2752 166.615C38.5992 166.403 39.6562 167.704 39.1778 168.956L35.9488 177.411C35.4704 178.664 33.8154 178.929 32.9698 177.889L27.2619 170.864C26.4162 169.824 27.0142 168.258 28.3382 168.046L37.2752 166.615Z" fill="url(#paint12_linear_33_263)"/>
<path d="M263.371 80.4224C263.039 79.1231 264.239 77.9524 265.53 78.3152L274.243 80.7638C275.534 81.1265 275.948 82.7506 274.988 83.6872L268.511 90.0089C267.552 90.9454 265.938 90.492 265.607 89.1927L263.371 80.4224Z" fill="url(#paint13_linear_33_263)"/>
<defs>
<filter id="filter0_f_33_263" x="15.1479" y="143.702" width="264.76" height="86.2208" filterUnits="userSpaceOnUse" color-interpolation-filters="sRGB">
<feFlood flood-opacity="0" result="BackgroundImageFix"/>
<feBlend mode="normal" in="SourceGraphic" in2="BackgroundImageFix" result="shape"/>
<feGaussianBlur stdDeviation="10.8865" result="effect1_foregroundBlur_33_263"/>
</filter>
<filter id="filter1_d_33_263" x="44.7585" y="12.1934" width="203.548" height="140.993" filterUnits="userSpaceOnUse" color-interpolation-filters="sRGB">
<feFlood flood-opacity="0" result="BackgroundImageFix"/>
<feColorMatrix in="SourceAlpha" type="matrix" values="0 0 0 0 0 0 0 0 0 0 0 0 0 0 0 0 0 0 127 0" result="hardAlpha"/>
<feOffset dy="3.48368"/>
<feGaussianBlur stdDeviation="1.74184"/>
<feComposite in2="hardAlpha" operator="out"/>
<feColorMatrix type="matrix" values="0 0 0 0 0 0 0 0 0 0 0 0 0 0 0 0 0 0 0.25 0"/>
<feBlend mode="normal" in2="BackgroundImageFix" result="effect1_dropShadow_33_263"/>
<feBlend mode="normal" in="SourceGraphic" in2="effect1_dropShadow_33_263" result="shape"/>
</filter>
<filter id="filter2_d_33_263" x="0.341931" y="49.642" width="133.251" height="86.4587" filterUnits="userSpaceOnUse" color-interpolation-filters="sRGB">
<feFlood flood-opacity="0" result="BackgroundImageFix"/>
<feColorMatrix in="SourceAlpha" type="matrix" values="0 0 0 0 0 0 0 0 0 0 0 0 0 0 0 0 0 0 127 0" result="hardAlpha"/>
<feOffset dy="3.48368"/>
<feGaussianBlur stdDeviation="5.22552"/>
<feComposite in2="hardAlpha" operator="out"/>
<feColorMatrix type="matrix" values="0 0 0 0 0.0196078 0 0 0 0 0.168627 0 0 0 0 0.396078 0 0 0 0.15 0"/>
<feBlend mode="normal" in2="BackgroundImageFix" result="effect1_dropShadow_33_263"/>
<feBlend mode="normal" in="SourceGraphic" in2="effect1_dropShadow_33_263" result="shape"/>
</filter>
<filter id="filter3_d_33_263" x="134.5" y="91.2093" width="165.841" height="109.102" filterUnits="userSpaceOnUse" color-interpolation-filters="sRGB">
<feFlood flood-opacity="0" result="BackgroundImageFix"/>
<feColorMatrix in="SourceAlpha" type="matrix" values="0 0 0 0 0 0 0 0 0 0 0 0 0 0 0 0 0 0 127 0" result="hardAlpha"/>
<feOffset dx="-5.28021" dy="13.0638"/>
<feGaussianBlur stdDeviation="7.40282"/>
<feComposite in2="hardAlpha" operator="out"/>
<feColorMatrix type="matrix" values="0 0 0 0 0.021441 0 0 0 0 0.168056 0 0 0 0 0.395833 0 0 0 0.15 0"/>
<feBlend mode="normal" in2="BackgroundImageFix" result="effect1_dropShadow_33_263"/>
<feBlend mode="normal" in="SourceGraphic" in2="effect1_dropShadow_33_263" result="shape"/>
</filter>
<linearGradient id="paint0_linear_33_263" x1="147.859" y1="-37.3495" x2="150.209" y2="365.463" gradientUnits="userSpaceOnUse">
<stop stop-color="#21262D"/>
<stop offset="1" stop-color="#BCD8FF"/>
</linearGradient>
<linearGradient id="paint1_linear_33_263" x1="146.533" y1="12.1934" x2="146.533" y2="146.219" gradientUnits="userSpaceOnUse">
<stop stop-color="#EDF4FF"/>
<stop offset="1" stop-color="#ABCCFF"/>
</linearGradient>
<linearGradient id="paint2_linear_33_263" x1="89.3965" y1="77.624" x2="89.3965" y2="193.594" gradientUnits="userSpaceOnUse">
<stop stop-color="#ABCCFF"/>
<stop offset="1" stop-color="#70A8FF"/>
</linearGradient>
<linearGradient id="paint3_linear_33_263" x1="203.678" y1="77.624" x2="203.678" y2="193.594" gradientUnits="userSpaceOnUse">
<stop stop-color="#ABCCFF"/>
<stop offset="1" stop-color="#70A8FF"/>
</linearGradient>
<linearGradient id="paint4_linear_33_263" x1="146.533" y1="127.006" x2="146.533" y2="193.594" gradientUnits="userSpaceOnUse">
<stop stop-color="#70A8FF"/>
<stop offset="1" stop-color="#5597FD"/>
</linearGradient>
<linearGradient id="paint5_linear_33_263" x1="22.9858" y1="85.7852" x2="96.5785" y2="71.415" gradientUnits="userSpaceOnUse">
<stop stop-color="#C6DDFF"/>
<stop offset="1" stop-color="white"/>
</linearGradient>
<linearGradient id="paint6_linear_33_263" x1="276.031" y1="128.329" x2="186.795" y2="110.904" gradientUnits="userSpaceOnUse">
<stop stop-color="#C6DDFF"/>
<stop offset="1" stop-color="white"/>
</linearGradient>
<linearGradient id="paint7_linear_33_263" x1="231.481" y1="23.1885" x2="250.532" y2="39.6997" gradientUnits="userSpaceOnUse">
<stop stop-color="#94BFFF"/>
<stop offset="1" stop-color="#4C94FE"/>
</linearGradient>
<linearGradient id="paint8_linear_33_263" x1="61.6517" y1="200.856" x2="80.7031" y2="217.368" gradientUnits="userSpaceOnUse">
<stop stop-color="#94BFFF"/>
<stop offset="1" stop-color="#4C94FE"/>
</linearGradient>
<linearGradient id="paint9_linear_33_263" x1="208.837" y1="210.437" x2="227.889" y2="226.948" gradientUnits="userSpaceOnUse">
<stop stop-color="#94BFFF"/>
<stop offset="1" stop-color="#4C94FE"/>
</linearGradient>
<linearGradient id="paint10_linear_33_263" x1="87.4343" y1="23.5146" x2="87.4343" y2="65.3188" gradientUnits="userSpaceOnUse">
<stop stop-color="#70A8FF"/>
<stop offset="1" stop-color="#5597FD"/>
</linearGradient>
<linearGradient id="paint11_linear_33_263" x1="261.944" y1="175" x2="261.944" y2="216.804" gradientUnits="userSpaceOnUse">
<stop stop-color="#70A8FF"/>
<stop offset="1" stop-color="#5597FD"/>
</linearGradient>
<linearGradient id="paint12_linear_33_263" x1="40.2542" y1="166.138" x2="26.7364" y2="177.123" gradientUnits="userSpaceOnUse">
<stop stop-color="#70A8FF"/>
<stop offset="1" stop-color="#5597FD"/>
</linearGradient>
<linearGradient id="paint13_linear_33_263" x1="262.625" y1="77.499" x2="274.791" y2="89.9644" gradientUnits="userSpaceOnUse">
<stop stop-color="#70A8FF"/>
<stop offset="1" stop-color="#5597FD"/>
</linearGradient>
</defs>
</svg>
