<svg width="185" height="185" viewBox="0 0 185 185" fill="none" xmlns="http://www.w3.org/2000/svg">
<circle cx="92.5" cy="92.5" r="92.5" fill="#005134"/>
<path d="M29.9766 129L56.832 56.2461H66.793L93.3555 129H83.9805L76.8516 108.59H46.4805L39.1562 129H29.9766ZM49.2637 100.777H74.166L68.6973 85.1523C67.7858 82.5807 66.793 79.7161 65.7188 76.5586C64.6771 73.3685 63.375 69.3483 61.8125 64.498C60.25 69.3483 58.9316 73.3685 57.8574 76.5586C56.8158 79.7161 55.8229 82.5807 54.8789 85.1523L49.2637 100.777ZM125.582 130.172C119.983 130.172 115.133 129.179 111.031 127.193C106.93 125.175 103.756 122.327 101.51 118.648C99.2637 114.97 98.1406 110.608 98.1406 105.562H107.125C107.125 110.771 108.736 114.84 111.959 117.77C115.214 120.699 119.755 122.164 125.582 122.164C130.888 122.164 135.136 121.008 138.326 118.697C141.549 116.386 143.16 113.277 143.16 109.371C143.16 106.344 142.07 103.886 139.889 101.998C137.708 100.11 133.997 98.515 128.756 97.2129L120.602 95.2109C113.18 93.388 107.825 90.9466 104.537 87.8867C101.249 84.8268 99.6055 80.8229 99.6055 75.875C99.6055 71.6758 100.631 68.0299 102.682 64.9375C104.765 61.8125 107.695 59.3874 111.471 57.6621C115.247 55.9368 119.658 55.0742 124.703 55.0742C132.288 55.0742 138.326 57.1087 142.818 61.1777C147.343 65.2142 149.703 70.7318 149.898 77.7305H141.207C140.947 73.1732 139.319 69.6087 136.324 67.0371C133.329 64.4329 129.358 63.1309 124.41 63.1309C119.69 63.1309 115.816 64.2865 112.789 66.5977C109.794 68.8763 108.297 71.8223 108.297 75.4355C108.297 78.2676 109.404 80.5788 111.617 82.3691C113.863 84.127 117.623 85.6732 122.896 87.0078L131.148 89.0586C138.245 90.8164 143.486 93.3066 146.871 96.5293C150.257 99.752 151.949 103.902 151.949 108.98C151.949 113.18 150.842 116.874 148.629 120.064C146.448 123.255 143.372 125.745 139.4 127.535C135.462 129.293 130.855 130.172 125.582 130.172Z" fill="white"/>
</svg>
